<?xml version="1.0" standalone="no"?>
<svg version="1.0" xmlns="http://www.w3.org/2000/svg" viewBox="0 0 499.031 222.913">
  <title>Sketch and doodles inserted in chapter 13</title>
  <path d="M2162 2552c-31-18-71-89-77-137-6-41-2-54 26-98 21-33 38-49 50-47 25 5 28 36 3 43-32 8-55 63-47 114 7 45 58 114 84 114 8 0 15 5 15 11 0 13-32 13-54 0zM2378 2520c-4-7 4-23 17-37 29-32 29-92-1-133-40-54-19-71 24-19 38 44 46 106 21 155-21 40-48 55-61 34zM3427 2483c-32-50-76-72-120-60-13 3-40-4-64-18-46-26-58-24-42 7 8 15 7 24-1 33-19 19-44 14-55-11-6-12-22-30-36-39l-25-16 18 35c21 41 15 68-14 59-16-5-19-2-15 15 9 33-6 26-46-20-19-23-44-44-56-48-11-3-20-13-20-21 0-20 5-19 37 1 21 14 26 15 26 3 0-9-5-20-10-25-14-15-74-162-74-180 0-38 28 0 58 76 30 77 34 83 60 80 32-4 64 11 106 49 26 24 30 25 23 7-23-58-22-62 13-55 18 4 36 2 39-4 9-13 46-2 73 22 20 17 79 38 79 27 0-3-10-23-22-45-24-43-33-129-13-136 20-7 67 42 82 86 14 41 15 42 73 48 33 4 62 9 65 12 3 3 17 0 31-8 21-10 35-10 70 0 31 9 52 10 72 2 21-8 40-7 71 3 27 9 63 12 98 8 43-6 59-3 74 10 23 22 83 29 93 12 6-9 14-10 33-1 20 9 27 8 35-4 14-22 335-23 335-2 0 11-30 14-150 11-144-4-151-3-156 17-5 21-12 22-120 19-72-1-119-7-127-15-15-15-55-17-46-3 11 18-12 22-26 5-8-9-27-23-44-31-29-16-29-15-23 10 9 37-9 41-60 12-58-33-72-33-72 0 0 14-5 26-11 26-6 0-28-12-50-26-45-31-67-34-63-8 5 31-40 29-60-2-19-28-53-36-60-14-2 7 16 38 41 69 50 61 55 76 25 76-12 0-31-19-49-48zm-340-56c0-14-31-37-38-29-8 7 15 38 29 38 5 0 9-4 9-9zm194-43c-3-6-11-11-16-11-6 0-10 5-10 11 0 5 7 10 16 10 9 0 14-5 10-10zm122-45c-1-5-1-16-1-26-1-24-38-73-48-63-10 10 27 104 39 100 6-2 10-7 10-11zM2695 2500c-37-24-67-71-76-120-6-31-3-37 17-44 15-5 32 0 52 14 19 15 32 18 39 11 13-13 71-8 71 7 0 6-10 12-23 14-25 3-34 36-13 49 5 3 10 25 10 48 0 36-3 41-24 41-13 0-37-9-53-20zm48-24c-7-7-13-23-13-35 0-23-50-78-71-78-17 0-16 13 2 56 15 37 52 70 79 70 12 0 12-3 3-13zM3848 2509c-10-16 1-24 21-17 10 4 14 12 11 17-9 14-23 14-32 0zM2258 2475c-33-85-40-113-30-119 6-3 14-2 19 3 10 11 42 107 42 126 0 23-21 16-31-10zM1950 2461c-20-20 8-130 32-130 4 0 5 29 3 65-5 60-18 82-35 65zM3990 2164c0-6 14-11 31-11 63 0 50-35-37-100-31-23-56-48-57-55 0-20 13-16 44 13 34 31 40 32 40 5 0-31 34-26 74 11 43 40 60 40 54 0-5-38 13-48 55-32 16 6 34 7 41 3 6-4 57-8 113-8 67-1 108-7 119-15 11-9 29-11 53-7 22 4 58 1 90-9 49-15 53-14 50 2-2 9-15 20-30 24-28 6-29 10-16 55 5 16 6 32 3 35-14 14-53-12-66-44-12-27-22-36-41-36-19 0-26 6-26 20 0 12 5 24 11 28 18 11 33 59 21 70-6 6-18-2-33-22-14-18-31-33-39-33-8 0-27-9-42-21-14-12-39-21-55-21-25 0-27 3-23 32 4 26 1 31-17 31-12 0-35-12-52-26-34-28-81-50-90-40-3 3 0 14 7 26 10 17 9 23-8 35-22 17-58 21-58 7 0-5-15-19-33-33l-33-24 8 25c4 13 18 40 30 59 17 26 28 33 43 29 65-18 79-18 79-3 0 23-25 30-123 37-62 4-87 2-87-7zm294-137c0-6-5-11-11-11-6 0-8 5-5 11 4 5 9 10 11 10 3 0 5-5 5-10zM2143 2107c-6-8-15-52-18-98-6-79-5-85 20-114 21-25 30-29 40-18 11 10 10 17-5 32-25 28-32 87-18 145 13 52 3 79-19 53zM2670 2113c-36-4-48-23-16-24 45 0 49-16 20-72-32-61-33-64-14-64 7 0 27 19 44 42 35 46 53 54 42 18-12-37-12-63 0-67 6-2 18 24 28 57 10 34 21 69 25 79 10 26-23 23-45-3-24-28-30-26-30 7 1 31-5 33-54 27zM3325 2114c-8-8 1-24 15-24 5 0 10 7 10 15 0 16-13 21-25 9zM2446 2090c17-31 13-93-7-130-10-18-22-35-27-37-4-2-7-8-7-13 0-6-10-21-21-33-22-24-28-50-12-50 16 0 114 153 122 189 9 43-12 95-39 95-16 0-18-4-9-21zM3612 2101c0-5 21-18 47-28 26-10 48-21 48-25 0-13-36-39-62-48-21-6-24-4-18 15 9 28-4 28-57 1-23-12-46-21-52-21-6 0-11 9-11 21 0 12-4 21-9 21-5 0-17-9-28-21-22-25-36-27-36-5 0 22-16 19-63-11-56-34-65-33-51 6 6 18 8 35 5 38-3 3-24-5-48-17-49-25-58-49-15-38 25 7 27 5 20-22-4-17-15-34-25-39-45-26-66-59-63-98 2-28 9-41 22-43 14-3 27 15 55 73 26 57 45 84 74 102 34 21 39 22 50 8 10-14 16-15 39-3 18 10 31 10 44 3 13-8 27-8 49 1 25 9 34 8 44-3 8-10 17-12 24-6 6 5 29 12 51 16 32 6 40 4 40-9 0-33 30-16 37 21 6 30 12 37 32 37 29 0 30 5 12 45-14 29-24 35-34 18-4-6-23-4-49 5-50 18-72 20-72 6zm-377-250c-9-15-11-16-11-2-1 18 11 33 18 26 2-2-1-13-7-24z" transform="matrix(.09524 0 0 -.09524 -26 243.937)"/>
  <path d="M2232 2083c-21-20-11-39 16-30 27 9 26 4-11-42-18-22-32-46-32-54 0-17 27-20 37-4 3 6 34 11 68 11 94 0 99 31 6 33-53 1-55 4-32 38 33 47-12 89-52 48zM2955 2078c-4-7-20-9-37-6-35 7-49-8-23-25 16-10 14-10-9-5-22 4-33-1-50-22-41-52-14-96 28-45 63 77 77 67 49-34-6-18 13-37 24-26 4 4 10 27 13 51 7 48 11 50 82 34 50-11 44 14-8 34-28 11-42 23-42 36 0 21-16 26-27 8zM3738 1777c0-47-11-53-106-58-50-2-96-8-103-12-7-4-37-2-66 5-50 12-137 9-211-7-24-5-28-3-28 16 0 29-33 29-58 1-25-27-48-27-55 0-6 25-34 20-74-11-18-14-36-17-73-13-28 3-53 10-57 17-6 8-15 8-35-1-37-17-40-16-27 7 6 11 11 28 11 38 0 29-24 11-37-27-11-32-17-37-53-39-44-3-89 15-97 37-3 10 5 13 26 11 21-2 30 1 30 13 0 25-61 26-83 1-15-17-16-25-7-43 10-19 9-21-13-21-14 0-54-4-90-7-61-7-64-6-64 16 0 31-27 81-47 89-21 8-21-7 0-47 21-42 14-58-29-65-45-7-61 7-61 52 0 44-35 64-65 38-23-20-14-38 13-29 13 4 20 1 20-7 0-27-133-68-154-47-3 3-1 18 6 33 16 36 15 58-3 58-15 0-27-31-27-71 0-18-7-23-34-26-44-4-56-40-14-40 23 0 31-8 47-45 22-50 57-87 74-76 15 9 14 22-3 39-25 25-49 68-42 75 14 14 49 6 78-19 33-27 52-26 88 5 12 10 41 21 66 25 52 8 57-4 24-59-25-39-27-60-8-60 7 0 26 28 42 64 23 49 34 63 48 59 11-3 41-2 68 2 43 7 53 5 76-17 14-13 39-27 54-31 22-6 32-1 55 26 34 42 45 42 41-1-3-25 1-34 12-34 10 0 17 12 19 34 4 40 18 45 27 8 5-20 14-26 36-26 15 0 35 4 44 10 9 6 20 5 28-2 7-5 27-7 44-4 18 4 40 2 52-5 15-10 31-10 65-2 45 12 74 8 74-9 0-5 7-9 15-9 9 0 16 9 16 21 0 11-5 21-10 21-13 0-14 28-2 35 5 3 55 12 112 19 97 12 103 11 119-9 19-23 96-70 103-63 4 4 10 28 13 50 1 11 147 22 161 13 7-4 24-7 37-5 13 2 24-2 24-9 0-7-9-9-23-5-16 5-21 3-17-7 8-26 45-22 58 6 18 39 63 38 67-2 4-33 36-43 74-22 13 7 46 14 72 16 25 2 66 5 89 7 23 2 50 7 60 11 13 6 19 4 19-8 0-8 5-19 11-23 13-8 52 25 52 44 0 9 12 15 31 15 21 0 32-6 32-16 0-19 11-20 46-4 22 10 30 10 40-4 15-18 45-30 54-22 3 3-7 22-21 42l-27 35 98 1c105 1 156 5 198 13 106 22 144 28 175 28 24 0 35 5 35 16 0 15-14 21-37 16-92-19-234-33-378-38-98-3-219-10-270-17-50-6-113-8-140-5-27 4-55 3-62-3-6-5-50-12-97-14l-86-4 21 26c22 29 27 69 7 63-7-3-23-23-35-45-27-52-46-59-46-17 0 17 4 34 10 38 19 12 11 26-16 26-21 0-26-5-26-29zm630-65c0-6-7-11-15-11-8 0-18 5-22 11-3 5 3 10 15 10 12 0 22-5 22-10zm-315-21c0-12-41-26-50-17-8 8 18 27 37 27 7 0 13-4 13-10zm80-7c-30-17-45-14-33 6 4 6 19 11 35 11l28-1-30-16zm-200-14c-4-6-18-11-30-11-22 1-22 1 3 15 28 16 38 14 27-4zm-1003-9c0-15-25-33-45-33-11 0-18 7-18 21 0 16 7 21 31 21 17 0 32-4 32-9zm210-6c0-17-23-27-59-27-28 0-32 9-13 29 18 18 72 16 72-2zm378 4c0-6-5-10-10-10-6 0-13 4-17 10-3 6 1 11 10 11 9 0 17-5 17-11zm-504-10c0-6-10-11-21-11-12 0-21 5-21 11 0 5 9 10 21 10 11 0 21-5 21-10zm-730-11c3-6-3-10-15-10-12 0-22 4-22 10 0 6 7 11 15 11 8 0 18-5 22-11zm425 6c0-11-20-16-26-6-4 6 1 11 10 11 9 0 16-3 16-5z" transform="matrix(.09524 0 0 -.09524 -26 243.937)"/>
  <path d="M3917 1769c0-8 7-15 15-15 9 0 16 7 16 15 0 9-7 16-16 16-8 0-15-7-15-16zM4092 1768c-9-9 1-25 14-25 6 0 10 7 10 16 0 16-12 21-24 9zM2967 1744c-4-7-5-16-2-19 10-10 20 4 15 19-4 11-6 11-13 0zM1005 1610c-4-4-7-16-7-26 0-11-8-19-16-19-9 0-16 7-16 15 0 9-4 16-8 16-15 0-34-25-34-44 0-15 8-19 36-19 20 0 38-6 41-13 8-23 26 5 30 49 3 38-10 58-26 41zM780 1560c-20-23-27-66-13-75 19-11 72-8 89 7 19 15 11 29-22 41-17 7-23 15-19 26 8 20-17 21-35 1zM616 1558c-13-14-7-23 17-28 23-5 23-5-1-6-19-1-24-6-19-18 5-12 2-16-9-11-18 7-32-10-16-20 6-3 31-9 57-12l47-6-2 51c-2 49-4 51-34 54-18 2-35 0-40-4zM2854 1473c-9-10-21-29-28-41-6-12-26-28-43-35-36-15-42-32-11-32 22 0 27-10 12-27-5-5-13-20-17-33-8-29 16-33 37-8 12 15 15 15 23 0 10-17 45-22 55-6 8 14 103 9 119-7 9-9 21-9 44-1 39 13 42 34 4 27-35-7-43 15-21 62 9 19 17 43 17 53 0 15-2 15-21-2-12-11-21-26-21-34 0-8-8-17-18-21-10-3-26-12-34-19-9-7-26-15-37-18-12-3-30-9-40-13-14-6-18-3-18 14 0 14-8 22-23 24-21 4-19 7 22 55 24 28 42 56 40 62-6 19-24 19-41 0zM3254 1440c-28-29-55-54-61-56-14-5-20-109-6-106 6 1 26 8 45 15 27 11 38 11 55 1 11-7 35-13 52-13 39 0 98 28 89 43-4 5-11 7-17 3-16-9-82-24-82-18 0 3 4 14 10 25 17 31-8 37-38 9-22-21-29-23-47-11-19 11-24 11-36-6-18-23-20-13-3 23 7 15 28 37 48 49 44 27 76 61 76 79 0 28-36 12-85-37zM999 1461c-11-7-11-10 3-15 10-4 17-19 17-40 0-20 4-31 12-28 15 5 32 60 25 79-6 15-36 17-57 4zM2422 1442c-3-6 0-20 9-31 31-41 6-164-42-203-17-14-22-42-7-42 15 0 62 57 78 95 9 21 19 57 23 80 6 38 3 47-24 77-17 19-33 30-37 24zM2167 1415c-14-45-6-112 17-150 12-20 27-36 32-36 20 0 18 20-7 69-25 49-27 75-9 122 5 13 2 19-9 19-9 0-19-11-24-24zM2654 1424c-28-21-24-64 8-78 33-15 34-44 2-44-13 0-30 6-37 12-17 18-30 1-16-20 13-22 58-29 87-13 32 17 27 55-10 83-36 26-32 46 9 41 19-2 28 2 31 15 3 14-3 18-26 18-16 0-38-6-48-14zM4257 1402c-15-20-34-37-41-37-8 0-34-12-60-26-49-28-85-36-63-14 19 19 15 40-8 40-11 0-29-13-40-28-14-20-26-26-39-21-16 6-11 14 27 48 35 31 43 44 34 54-16 17-68-11-88-48-16-30-48-48-70-39-9 3-5 15 13 39 29 38 33 58 11 58-19 0-58-41-58-59 0-17-34-35-64-35-16 0-21 4-17 16 10 26-19 28-59 5-43-26-101-44-114-36-17 10 12 46 36 43 17-2 24 4 27 21 2 18-2 24-17 24-29 0-76-54-76-87 0-25 4-28 31-28 17 0 43 5 57 12 19 8 31 8 40 1 14-11 111-2 135 13 6 4 18 1 26-6 9-7 30-10 52-7 20 3 37 2 39-4 5-14 111-20 142-9 18 7 31 7 40-1 10-8 20-8 33-1 14 7 25 6 38-4 20-14 60-10 60 7 0 5-9 9-21 9-29 0-26 14 11 65 51 70 35 103-17 35zM2281 1421c-7-3-13-12-13-20 0-11 7-14 26-9 32 8 36-11 6-27-25-13-28-31-6-31 9 0 16-10 16-21 0-24-21-28-40-9-9 9-14 7-19-7-5-13-1-24 12-33 25-19 30-18 56 4 17 13 24 34 27 74 3 31 2 63-1 71-6 15-38 19-64 8zM1160 1359c-135-15-168-19-346-35-64-6-135-14-158-17-46-6-103-12-199-21-88-9-110-14-110-27 0-7 19-9 57-4 32 4 58 3 59-2 1-5 3-42 5-82 7-108 2-103 99-95 73 7 83 6 78-8-4-10 2-19 16-23 13-4 22-16 22-31 0-31 24-52 51-43 23 7 29 31 12 42-18 11-12 46 7 51 10 2-3 5-28 6-34 1-43 4-32 11 19 11 332 32 476 32 100 0 165 8 165 20 0 3-109 5-242 4-157-2-241 1-241 7 0 6 4 11 9 11 10 0 20 29 29 81 6 41-9 45-26 8-12-26-33-36-33-15 0 30-31 42-85 35-60-8-73-23-52-62 18-33 8-43-26-28-21 10-26 9-26-2-1-15 57-29 81-20 17 7 17 29 0 56-16 26-3 37 42 37 24-1 29-5 29-27 0-21 4-26 23-23 29 4 31-15 5-46-22-26-125-46-236-46l-78 0-7 33c-7 34 7 61 31 61 8 0 11-8 7-22-5-20-3-22 30-15 54 12 74 26 37 26-21 0-31 7-35 23-5 18-12 21-42 16-32-5-35-4-33 17 4 26 6 26 251 49 66 6 160 15 210 21 49 6 151 16 228 22 105 10 139 16 139 27 0 8-8 14-18 13-10-1-75-8-145-15z" transform="matrix(.09524 0 0 -.09524 -26 243.937)"/>
  <path d="M1005 1290c-36-13-36-23 0-49 24-18 26-23 15-37-17-20-7-38 19-38 38 0 53 12 53 44 0 24-4 30-17 25-9-4-28 3-43 14l-26 21 27 6c15 4 44 4 64 0 21-3 37-2 37 3 0 24-76 30-129 11zM1263 1263c-20-7-35-41-28-60 14-36 120-29 120 9 0 23-67 60-92 51zm41-36c17-9 19-13 8-20-17-10-55 8-46 22 7 13 12 13 38-2zM300 1208c-11-18 7-42 32-42 14 0 25-5 25-11 0-6-19-10-42-10-23 0-42-5-42-10 0-19 21-23 68-16 53 8 61 27 31 73-17 26-60 36-72 16zM1129 1187c3-6 8-11 11-11 2 0 5 5 5 11 0 5-6 10-12 10-6 0-8-5-4-10zM4679 1167c-15-17-25-19-57-11-48 10-70-6-29-22 15-6 33-10 38-10 25 0 6-25-35-43-58-26-81-26-81 1 0 26-19 26-52 0-36-28-67-28-58 0 8 25-17 29-37 5-17-20-29-20-33-1-3 12-15 9-54-15-59-38-62-38-60-8 4 39 1 41-29 25-16-8-47-18-68-23-22-4-39-11-39-16 0-13 49-12 74 1 38 21 23-23-23-65-30-28-42-46-39-63 6-46 37-34 71 27 36 62 78 90 133 88 18 0 38 3 44 6 6 4 14 3 17-3 8-13 180-6 219 9 26 10 29 9 26-7-4-24 32-29 60-9 18 13 18 17 6 32-12 15-12 20 3 35 16 16 18 16 37-1 21-20 54-14 54 10 0 8-11 19-24 24-13 5-23 17-23 28 0 26-20 29-41 6zM4225 1160c-4-9-4-19-1-22 9-9 29 6 29 23 0 20-21 19-28-1zM2647 1109c-18-26-37-59-43-74-14-37-44-36-40 2 5 41-28 43-69 5-18-17-41-34-52-38-18-6-17-4 3 29 14 23 18 39 11 43-19 12-53-6-63-32-6-14-15-25-21-25-14 0-14 28 0 36 18 11 12 27-10 27-12 0-21 4-21 10 0 26-31 7-47-29-32-70-41-86-60-107-11-11-19-29-19-39 1-28 57 41 81 98 10 25 23 44 29 42 14-5 7-40-12-61-22-24-8-29 70-25 134 8 205 8 232 1 18-5 39-2 60 9 22 11 34 13 39 5 4-7 21-9 42-5 22 4 36 3 36-4 0-15 29-14 39 2 7 12 58 40 73 40 3 0 3-12-1-26-3-14-1-29 4-32 19-11 85 6 85 23 0 11-8 13-31 9-27-7-29-5-25 18 6 34-12 44-50 28-24-9-35-10-46 0-11 9-23 7-53-10l-40-22 8 29c10 42 16 46 83 49 72 2 83 22 14 26-35 2-49 8-49 18 0 22-19 19-32-5-12-24-65-30-62-8 7 55-23 51-63-7zm78-38c9-15-55-73-81-73-19 0-17 4 14 41 36 42 55 51 67 32zM3885 1134c-9-6-29-10-45-10-16 0-28-5-28-11 0-6 11-10 26-10 14 0 26-5 26-10 0-17-62-35-102-30-25 3-53-2-76-13-21-10-48-22-62-26-21-7-24-5-18 14 8 25-12 30-47 12-17-9-20-8-20 9 0 24-18 33-56 25-36-6-37-23-2-23 30 0 33-17 10-50-25-35 1-40 40-7 28 23 34 25 37 11 4-20 45-23 76-7 16 9 22 8 27-5 9-22 25-20 53 6 28 27 109 45 109 25 0-20 26-38 45-30 22 8 23 25 2 25-9 0-16 4-16 9 0 19 44 65 63 65 32 0 35 20 5 31-33 12-28 12-47 0zM2164 1096c-17-38 1-56 24-24 9 14 17 31 17 38 0 24-28 14-41-14zM2215 1097c-14-38-13-57 4-57 14 0 41 67 30 78-12 12-24 5-34-21zM3019 1115c-12-12-5-53 11-59 24-9 36 2 36 30 0 23-32 44-47 29zM1246 1096c-14-14-7-34 14-41 12-3 21-14 21-23 0-11-6-13-18-8-42 17-55 18-55 3 0-28 20-37 63-29 53 9 60 16 44 42-7 11-13 27-13 35 0 21-41 36-56 21zM1026 1085c-22-6-24-33-3-41 8-4 20-20 26-37 12-34 29-40 36-12 25 92 14 109-59 90zM831 1063c-12-23-6-34 17-34 8 0 23-10 33-23l19-23 7 31c4 17 10 39 13 49 3 10 0 19-7 19-7 0-19-9-27-19-14-17-15-17-29 1-15 19-16 19-26-1zM3239 1070c-4-6-20-9-35-7-22 2-28-2-31-20-4-25 31-66 55-66 8 0 17 10 18 23 3 16 10 23 22 21 20-4 22 1 12 37-7 25-29 31-41 12zm-15-41c0-6-5-10-11-10-6 0-10 4-10 10 0 6 4 11 10 11 6 0 11-5 11-11zM1126 1027c6-19 29-23 29-4 0 9-7 17-17 17-9 0-14-6-12-13zM1557 973c-16-14-41-29-55-33-76-23-103-46-143-123-22-42-41-93-42-113-2-21-9-58-17-83-12-42-12-46 10-63 13-9 28-32 34-51 15-42 34-49 81-29 20 8 39 16 41 16 2 0 4-20 4-43 0-35 3-42 18-40 24 5 31 70 10 98-16 22-17 22-94-10-25-11-38 25-13 39 17 9 16 11-7 25-13 8-33 17-43 21-19 7-18 27 6 75 8 16 17 22 30 18 11-4 20-1 20 5 0 6-10 11-21 11-12 0-21 4-21 10 0 18 19 22 46 9 15-6 30-9 34-5 12 12-19 39-45 39-30 0-31 6-4 49 18 30 27 35 62 35 23 0 45-6 49-12 4-6 13-9 21-6 9 4 16-5 20-25 4-17 14-31 22-31 23 0 18-18-9-26-20-7-20-8-5-13 20-5 24-19 8-29-15-9-13-26 3-26 30-1 16-41-19-58-37-17-47-34-23-42 15-6 67-14 94-15 15-1 16-6 6-33-22-65 11-101 99-107 54-4 54 17 0 24-55 8-57 9-65 68-6 33-4 47 5 47 30 0 66 48 73 97 4 28 14 63 22 79 17 34 19 55 5 55-12 0-9 58 3 70 9 9 9 71 0 80-4 4-13 2-21-4-11-10-14-7-14 14 0 39-31 61-87 61-35 0-56-7-78-25zm99-13c-3-4-12-4-20-1-8 3-6 6 6 6 11 1 18-2 14-5zm-144-67c0-6-7-11-15-11-8 0-18 5-22 11-3 5 3 10 15 10 12 0 22-5 22-10zm-63-11c0-6-5-10-11-10-6 0-8 4-5 10 4 6 9 11 11 11 3 0 5-5 5-11zm294-11c0-6-7-10-16-10-16 0-21 12-9 24 9 9 25-1 25-14zm-213-16c-3-4-12-4-20-1-8 3-6 6 6 6 11 1 18-2 14-5zm161-3c0-5 10-12 23-16 12-3 20-9 16-12-3-4-25-1-49 7-30 8-39 15-30 21 18 11 40 11 40 0zm-84-275c12-7 9-9-13-8-15 1-26 6-23 11 7 11 16 10 36-3zM3234 849c0-8-13-10-37-6-42 7-60-9-24-23 23-8 23-9-10-26-18-9-41-17-51-17-14 0-15 3-4 16 20 24-4 47-29 28-29-20-101-54-117-54-11 0-9 7 8 24 28 29 28 39 3 39-10 0-36-19-57-42-21-22-48-44-60-48-32-10-26-30 8-22 16 4 43 9 60 12 18 3 45 10 62 16 20 7 35 6 44-1 14-12 79-4 113 13 14 8 23 6 32-7 16-22 60-13 87 18 19 21 19 22-2 14-11-5-30-11-42-14-19-5-19-4 3 21 16 17 40 28 67 32 72 10 71 22-4 32-34 4-50 3-50-5zM2668 830c-12-12-22-26-22-31 0-17-32-43-53-43-14 0-20 7-20 21 0 33-24 35-82 6-65-33-71-33-50-4 22 32 20 40-9 40-17 0-38-14-59-39l-34-40 7 40c6 36 5 40-22 50-26 10-32 8-63-25-36-38-48-70-28-77 6-3 21 12 33 33 31 52 54 50 47-5-3-23-2-42 3-42 6 0 42 5 81 11 52 7 76 7 91-3 13-8 25-9 34-2 14 11 96 10 150-1 22-4 39-1 53 11 20 16 20 17-9 11-46-10-52 3-17 37 34 32 38 65 8 70-10 2-27-6-39-18zm-253-53c-25-16-39-11-17 5 12 9 23 13 26 10 4-3-1-10-9-15zM3560 839c-9-5-34-17-56-26-21-8-39-20-39-26 0-14 14-13 48 5 34 18 45 14 25-10-9-12-10-20-2-28 8-8 20-5 43 11 19 14 34 19 38 13 4-6 43-9 92-7 69 3 89 0 98-13 10-14 17-14 45-3 18 8 40 11 49 8 9-4 34 0 54 9 46 19 46 19 46 0 0-18 37-22 47-5 5 7 12 5 20-7 13-17 17-17 84 1 63 17 89 31 77 43-2 2-28-3-56-11-29-9-53-16-55-16-1 0-1 13 0 29 3 23-1 28-18 26-11-2-37-4-57-6-21-2-52-12-71-21-45-23-56-22-53 6 4 32-39 37-99 10-25-11-60-23-79-26-32-7-33-6-24 19 11 29-6 37-29 13-10-9-13-8-13 6 0 19-26 24-37 7-3-6-15-15-26-21-16-8-18-7-13 11 5 22-12 27-39 9zM567 773c-12-32-42-37-42-6 0 11-7 21-15 21-8 0-17-10-20-21-5-19-38-29-74-22-17 3-69-22-69-33 0-6 11-9 26-6 31 6 35-8 5-16-12-3-21-11-21-18 0-9 15-10 54-5l53 7-7-42c-12-69 24-67 41 3 13 53 48 65 48 16 0-17 5-31 11-31 6 0 16 14 22 31 11 31 13 32 79 32 49 0 67 3 64 12-2 7-16 16-30 20-20 6-15 8 19 8 25 1 45 6 45 12 0 16-49 24-106 17-50-7-53-6-50 16 5 33-20 37-33 5zm-21-59c0-6-5-10-10-10-6 0-11 4-11 10 0 6 5 11 11 11 5 0 10-5 10-11zm102 3c-10-2-26-2-36 0-10 3-2 5 18 5 20 0 28-2 18-5zM4342 654c-33-8-152-77-152-88 0-13 28-12 36 1 4 6 14 11 22 11 24 0 18-48-9-67-21-15-22-18-6-31 11-8 17-27 16-50-2-53 18-50 29 5 19 94 60 68 95-62 21-77 32-100 60-124 35-30 72-38 71-15 0 7-15 22-34 34-29 18-37 33-55 100-11 44-29 92-38 106-17 26-17 27 18 58 26 23 36 41 36 64 0 53-30 72-89 58zm55-51c5-31-28-66-68-74-34-6-34-6-34 31 0 27 6 42 23 54 32 23 75 17 79-11z" transform="matrix(.09524 0 0 -.09524 -26 243.937)"/>
  <path d="M5209 639c-26-24-63-98-64-126 0-20-51-40-101-40-42 0-44 9-11 49 59 72 72 98 59 113-22 28-65-6-99-80-18-37-36-70-42-74-16-12-87-10-94 2-4 5 8 29 25 54 36 49 40 70 16 79-25 9-57-27-70-78-8-33-19-50-42-61-33-18-52-12-50 15 5 46-16 59-43 27-15-18-107-67-125-67-6 0 1 17 16 38 14 21 26 49 26 63 0 24-1 25-31 9-35-18-44-29-59-73-10-31-17-36-72-58-21-8-27-15-20-23 7-7 23-5 49 6 22 9 52 13 69 10 21-5 42 1 67 16 25 16 38 19 41 10 5-17 129-16 149 1 12 10 20 10 39 0 14-8 46-10 82-7 33 3 68 1 78-5 12-7 36-4 76 7 52 15 61 16 76 1 14-12 47-15 178-12 159 3 199 12 174 38-8 8-26 8-59-1-68-17-107-10-111 19-5 32-37 31-52-2-7-15-24-28-44-32-64-14-70 20-16 100 52 76 41 134-15 82zM2535 521c-17-8-45-30-61-49-38-45-34-81 12-108 51-29 109-16 160 36 44 46 53 50 45 21-6-23 42-64 76-64 41 0 100 32 119 63 23 42 62 43 66 3 3-24 11-31 42-39 48-12 110 0 136 26 16 16 35 20 92 20 93 0 138 10 138 29 0 12-8 13-34 7-19-5-65-8-102-9l-67 0-9 35-9 34-60-7c-33-4-73-16-88-27-40-28-80-25-95 6-6 14-19 28-28 30-32 6-98-11-130-35-28-20-34-21-44-8-9 13-102 51-121 50-3 0-20-7-38-14zm85-27 21-10-21 0c-12 0-28 4-37 10-14 9-14 10 0 9 9 0 25-5 37-9zm-62-16c17-9 46-16 64-16 44 0 43-11-3-51-36-32-51-38-94-33-49 5-58 53-18 97 20 22 15 22 51 3zm309 5c0-6-3-10-5-10-3 0-8 4-11 10-4 6-2 11 4 11 6 0 12-5 12-11zm257-11c0-22-31-19-35 4-3 14 1 18 15 16 11-2 20-11 20-20zm-257-28c13-12-57-55-89-55-40 0-69 25-50 44 23 22 118 30 139 11zm202 1c48-8 50-21 5-33-50-13-92-4-92 20 0 21 18 24 87 13zM3918 398c-6-20-11-50-9-67l2-32-75-6c-82-8-98-14-98-36 0-17 28-21 33-6 2 5 46 12 98 16 173 12 202 17 221 38 17 19 17 22 1 47-10 15-16 30-13 35 14 22-17 37-81 41l-68 5-11-35zm119 1c4-6-10-10-36-10-23 0-42 4-42 10 0 6 16 11 36 11 20 0 39-5 42-11zm-13-42c33 0 51-28 28-43-8-5-34-9-58-9-36 0-45 3-50 22-8 31 2 44 29 36 12-3 35-6 51-6z" transform="matrix(.09524 0 0 -.09524 -26 243.937)"/>
  <path d="M3693 403c-11-11-9-93 3-125 13-34 33-24 29 14-2 25 1 29 34 31 63 5 71 17 16 23-37 4-53 10-53 22 0 12 14 15 63 15 94 0 89 21-5 24-44 2-83 0-87-4zM3470 384c-61-19-107-45-114-64-14-36-6-58 28-79 28-17 49-20 118-18l84 3 3 31c2 17 12 37 21 44 15 11 15 14 2 15-9 1-30 3-47 5-40 6-79-3-79-17 0-5 14-10 32-10 24 0 31-5 31-20 0-24-33-31-103-21-77 11-86 54-18 88 23 11 62 20 87 21 44 0 61 18 28 31-21 8-22 7-73-9z" transform="matrix(.09524 0 0 -.09524 -26 243.937)"/>
</svg>
